<?xml version="1.0" encoding="UTF-8" standalone="no"?>
<svg
   xmlns:dc="http://purl.org/dc/elements/1.1/"
   xmlns:cc="http://creativecommons.org/ns#"
   xmlns:rdf="http://www.w3.org/1999/02/22-rdf-syntax-ns#"
   xmlns:svg="http://www.w3.org/2000/svg"
   xmlns="http://www.w3.org/2000/svg"
   xmlns:sodipodi="http://sodipodi.sourceforge.net/DTD/sodipodi-0.dtd"
   xmlns:inkscape="http://www.inkscape.org/namespaces/inkscape"
   width="11.6433mm"
   height="11.6433mm"
   viewBox="0 0 44 44"
   version="1.1"
   id="svg843"
   sodipodi:docname="Morfonica.svg"
   inkscape:version="0.92.4 (5da689c313, 2019-01-14)"
   inkscape:export-filename="D:\Bestdori\Band Logos\Morfonica.png"
   inkscape:export-xdpi="1101.0596"
   inkscape:export-ydpi="1101.0596">
  <metadata
     id="metadata849">
    <rdf:RDF>
      <cc:Work
         rdf:about="">
        <dc:format>image/svg+xml</dc:format>
        <dc:type
           rdf:resource="http://purl.org/dc/dcmitype/StillImage" />
        <dc:title />
      </cc:Work>
    </rdf:RDF>
  </metadata>
  <defs
     id="defs847" />
  <sodipodi:namedview
     pagecolor="#ffffff"
     bordercolor="#666666"
     borderopacity="1"
     objecttolerance="10"
     gridtolerance="10"
     guidetolerance="10"
     inkscape:pageopacity="0"
     inkscape:pageshadow="2"
     inkscape:window-width="1920"
     inkscape:window-height="1017"
     id="namedview845"
     showgrid="false"
     inkscape:snap-nodes="false"
     inkscape:zoom="9.6350115"
     inkscape:cx="20.194277"
     inkscape:cy="28.08066"
     inkscape:window-x="-8"
     inkscape:window-y="-8"
     inkscape:window-maximized="1"
     inkscape:current-layer="svg843"
     inkscape:pagecheckerboard="true"
     inkscape:snap-grids="false">
    <inkscape:grid
       type="xygrid"
       id="grid1643" />
  </sodipodi:namedview>
  <g
     inkscape:groupmode="layer"
     id="layer7"
     inkscape:label="BG"
     style="display:inline">
    <path
       sodipodi:type="inkscape:offset"
       inkscape:radius="0.040278304"
       inkscape:original="M 31.902344 0.67382812 C 27.860119 0.80046081 24.193551 2.3795577 21.646484 4.9121094 C 19.446546 7.0995103 18.176349 10.043628 18.185547 13.285156 C 14.81298 11.282127 10.66403 11.30713 8.078125 11.585938 C 6.7046045 11.670647 4.7261241 12.335627 2.7324219 13.685547 C 0.73871962 15.035466 -1.2299927 17.096172 -2.2695312 19.984375 A 0.81885908 0.81885908 0 0 0 -2.3144531 20.173828 C -2.4285285 21.224522 -2.2085519 22.236321 -1.6445312 23.003906 C -1.0805107 23.771491 -0.067124053 24.244176 0.98828125 24.023438 L 0.9609375 24.029297 C 1.0549332 24.012885 1.5746225 24.013161 2.1835938 24.197266 C 2.792565 24.38137 3.5299148 24.728234 4.2617188 25.326172 L 4.2148438 25.283203 C 5.7727071 26.76804 7.7031578 26.487425 8.1445312 26.408203 A 0.81885908 0.81885908 0 0 0 8.2285156 26.388672 C 8.1951019 26.398344 8.2837785 26.387298 8.3613281 26.412109 C 8.4388777 26.436921 8.4955932 26.5368 8.3828125 26.378906 L 8.3515625 26.332031 C 8.535546 26.630212 8.7099563 26.707419 8.8808594 26.802734 C 9.0517624 26.898049 9.2326639 26.973653 9.4316406 27.046875 C 9.8295941 27.193318 10.297872 27.320038 10.783203 27.417969 C 11.237614 27.509661 11.698635 27.568058 12.132812 27.585938 C 11.908074 28.836597 11.807116 30.202551 12.179688 31.646484 C 12.668946 33.542659 13.901305 35.455177 16.220703 36.933594 L 15.986328 36.707031 C 16.189106 37.001058 16.408208 37.101 16.621094 37.193359 C 16.83398 37.285719 17.058452 37.346739 17.302734 37.394531 C 17.791299 37.490115 18.358668 37.52412 18.951172 37.470703 C 19.543675 37.417287 20.160789 37.279266 20.726562 36.980469 C 21.292336 36.681671 21.818997 36.187755 22.0625 35.494141 A 0.81885908 0.81885908 0 0 0 22.078125 35.443359 C 22.398467 34.294546 22.509546 33.378574 22.857422 32.978516 C 23.273001 32.528977 24.82842 30.929899 25.390625 28.421875 C 25.763264 28.591524 26.154324 28.722624 26.539062 28.798828 C 27.413132 28.971952 28.269912 28.96777 28.904297 28.884766 A 0.81885908 0.81885908 0 0 0 28.957031 28.875 C 29.78395 28.711385 30.674984 28.714295 31.398438 28.802734 C 32.12189 28.891174 32.742444 29.142862 32.736328 29.138672 L 32.646484 29.068359 C 33.459817 29.810189 34.563466 29.780614 35.546875 29.519531 C 36.529449 29.258671 37.564198 28.65779 37.800781 27.507812 C 38.934252 22.171827 36.695013 17.989665 33.818359 16.90625 A 0.81885908 0.81885908 0 0 0 33.806641 16.902344 C 33.639599 16.842023 33.58385 16.820085 33.494141 16.787109 C 33.958143 15.995037 34.100724 15.101688 34.189453 14.326172 C 34.242845 13.85951 34.29384 13.435399 34.365234 13.154297 C 34.436629 12.873195 34.529362 12.805118 34.46875 12.84375 A 0.81885908 0.81885908 0 0 0 34.589844 12.75 C 35.080321 12.289861 35.552998 11.825224 35.8125 11.089844 C 36.072002 10.354463 36.123723 9.4721005 36.087891 8.0234375 A 0.81885908 0.81885908 0 0 0 36.087891 8.0214844 C 36.065072 7.1619979 36.412807 6.7549764 36.931641 6.1972656 C 37.191057 5.9184103 37.491652 5.627457 37.759766 5.2480469 C 38.027879 4.8686367 38.257812 4.364593 38.257812 3.7832031 A 0.81885908 0.81885908 0 0 0 38.257812 3.7578125 C 38.236328 3.0846064 37.936415 2.4699673 37.498047 2.0371094 C 37.059679 1.6042514 36.507879 1.3240562 35.908203 1.1230469 C 34.709429 0.72122174 33.280582 0.62686838 31.904297 0.67382812 L 31.902344 0.67382812 z M 33.408203 16.957031 C 33.408101 16.963983 33.411649 17.005076 33.414062 16.998047 L 33.248047 17.279297 C 33.334815 17.182321 33.338367 17.059859 33.408203 16.957031 z "
       style="fill:#23bef7;fill-opacity:0.98492462;stroke:none;stroke-width:0.03778998;stroke-miterlimit:4;stroke-dasharray:none"
       id="Unnamed-3"
       d="m 32.943359,0.62695312 c -0.347111,-0.008517 -0.696247,-0.005904 -1.041015,0.005859 a 0.04028233,0.04028233 0 0 0 -0.002,0 c -4.051938,0.12693696 -7.728368,1.7097237 -10.283203,4.25 C 19.42551,7.0620002 18.1553,9.9918174 18.146484,13.216797 14.772266,11.241808 10.649227,11.267289 8.0742188,11.544922 c -1.3839925,0.08584 -3.367255,0.754606 -5.3652344,2.107422 -1.99926695,1.353687 -3.9726663,3.420653 -5.015625,6.318359 -0.023532,0.06407 -0.039135,0.131403 -0.046875,0.199219 a 0.04028233,0.04028233 0 0 0 -0.00195,0 c -0.1149746,1.058976 0.106672,2.080254 0.6777344,2.857422 0.5642168,0.767852 1.57103919,1.240641 2.62500002,1.041015 0.003223,-6.1e-4 0.006542,6.23e-4 0.009766,0 a 0.04028233,0.04028233 0 0 0 0.0117188,0 c 0.03457,-0.006 0.1907486,-0.01104 0.40625,0.0098 0.2155014,0.02081 0.495422,0.06707 0.796875,0.158203 0.6041777,0.182655 1.3370044,0.526714 2.0644531,1.121094 a 0.04028233,0.04028233 0 0 0 0.00391,0.002 0.04028233,0.04028233 0 0 0 0.00195,0.002 0.04028233,0.04028233 0 0 0 0.00781,0.0039 c 1.5607116,1.43367 3.4628944,1.160908 3.9023438,1.082032 0.021737,-0.0039 0.043078,-0.0081 0.064453,-0.01367 6.414e-4,1.2e-4 0.00152,-6.4e-5 0.00195,0 0.011451,0.0017 0.019899,0.0012 0.033203,0.002 0.026608,0.0015 0.064778,0.0051 0.097656,0.01563 0.026549,0.0085 0.055494,0.032 0.068359,0.04297 0,0 0.00195,0.002 0.00195,0.002 0.00111,8.77e-4 0.00564,0.0057 0.00586,0.0059 0.1508058,0.184149 0.2995045,0.260065 0.4355469,0.335938 0.1735497,0.09679 0.3566563,0.172501 0.5566407,0.246093 0.4004967,0.147379 0.8704112,0.274777 1.3574222,0.373047 0.441695,0.08913 0.888296,0.146093 1.3125,0.166016 -0.21976,1.241758 -0.317454,2.598508 0.05273,4.033203 0.48374,1.87479 1.694311,3.763099 3.949219,5.236328 0.169955,0.17864 0.347587,0.264989 0.515625,0.337891 0.216427,0.0939 0.443394,0.154985 0.689453,0.203125 0.492565,0.09637 1.063839,0.131885 1.660156,0.07813 0.596192,-0.05375 1.219077,-0.194041 1.791016,-0.496094 0.572854,-0.302537 1.105979,-0.80271 1.353515,-1.507813 a 0.04028233,0.04028233 0 0 0 0.002,0 c 0.0058,-0.017 0.01086,-0.03541 0.01563,-0.05273 v -0.002 c 0.160293,-0.575135 0.268158,-1.093157 0.378906,-1.513672 0.110872,-0.420988 0.227235,-0.743449 0.392578,-0.933594 h -0.002 c 0.411367,-0.444983 1.957783,-2.035813 2.53125,-4.529297 0.361878,0.161194 0.740197,0.287433 1.113281,0.361329 0.879112,0.174122 1.740068,0.169524 2.378906,0.08594 0.01855,-0.0028 0.03636,-0.0057 0.05469,-0.0098 0.821425,-0.162528 1.708128,-0.160234 2.427734,-0.07227 0.358535,0.04383 0.694216,0.130128 0.9375,0.203125 0.121642,0.0365 0.219002,0.06954 0.28711,0.09375 0.03405,0.0121 0.06045,0.02074 0.07812,0.02734 0.0088,0.0033 0.01694,0.0061 0.02148,0.0078 0.0023,8.48e-4 0.0042,0.0014 0.0059,0.002 0,0 0.002,0.002 0.002,0.002 0.815775,0.663565 1.882268,0.63301 2.832032,0.38086 0.990622,-0.262997 2.042507,-0.872999 2.283203,-2.042969 1.1366,-5.350716 -1.105616,-9.553449 -4.007813,-10.646484 a 0.04028233,0.04028233 0 0 0 0,-0.002 c -0.0041,-0.0014 -0.0096,-0.0026 -0.01367,-0.0039 -0.141219,-0.05102 -0.196335,-0.07119 -0.267578,-0.09766 0.45018,-0.790069 0.590351,-1.671789 0.677735,-2.435547 0.05338,-0.466522 0.10564,-0.889847 0.175781,-1.166016 0.03486,-0.13727 0.07399,-0.21997 0.09766,-0.265624 0.0059,-0.01141 0.01167,-0.02183 0.01563,-0.0293 0.002,-0.0037 0.0023,-0.0063 0.0039,-0.0098 0.0012,-0.0024 0.0028,-0.0066 0.0039,-0.0098 0.03158,-0.02241 0.06353,-0.04385 0.0918,-0.07031 0.490927,-0.460561 0.969584,-0.930948 1.232421,-1.675781 0.262179,-0.742965 0.315059,-1.6313229 0.279297,-3.0800785 v -0.00195 a 0.04028233,0.04028233 0 0 0 0,-0.00195 c -0.02252,-0.8482967 0.313741,-1.2377952 0.832032,-1.7949218 0.258363,-0.2777243 0.561329,-0.5700532 0.832031,-0.953125 0.271552,-0.3842771 0.505859,-0.8962716 0.505859,-1.4882813 1.38e-4,-0.00888 1.38e-4,-0.016512 0,-0.025391 a 0.04028233,0.04028233 0 0 0 0,-0.00195 C 38.276988,3.0714901 37.970788,2.447611 37.525391,2.0078125 37.081182,1.5691869 36.525186,1.2862121 35.921875,1.0839844 35.017287,0.78076948 33.984693,0.65250493 32.943359,0.62695312 Z"
       transform="matrix(0.92727276,0,0,0.95002544,2.3117217,4.0377609)" />
  </g>
  <g
     inkscape:groupmode="layer"
     id="layer8"
     inkscape:label="White"
     style="display:inline">
    <path
       d="m 19.988557,18.082603 c -0.908729,-6.8045 4.840364,-12.2670026 11.971091,-12.4938193 2.438727,-0.085056 5.053638,0.3874787 5.109275,2.1642091 0,1.4459563 -2.067819,1.8901387 -2.012183,4.0259972 0.0649,2.674546 -0.250362,3.024222 -1.149818,3.884236 -0.843818,0.548139 -0.343091,3.251038 -1.288909,4.328418 -0.213275,0.633197 0.491454,0.765507 0.825272,0.888366 2.142001,0.822211 4.209819,4.385122 3.217638,9.138822 -0.259637,1.294744 -2.67982,1.842884 -3.523637,1.058477 -0.500728,-0.349677 -2.346002,-0.718254 -4.080001,-0.368578 -0.992182,0.132311 -2.976544,0.01891 -3.681272,-1.030125 -0.09271,2.891913 -1.87309,4.574136 -2.401636,5.16008 -0.556365,0.652098 -0.612001,1.644421 -0.88091,2.627293 -0.612,1.77673 -3.922364,1.512112 -4.293273,0.963972 -4.015088,-2.608393 -4.005817,-6.464276 -3.282544,-9.08212 -0.612,0.434732 -3.505093,-0.245717 -3.774002,-0.689902 C 10.604558,28.459466 10.122376,28.270453 9.7700133,28.37441 9.4083764,28.440556 7.971104,28.667382 6.7841954,27.514397 5.2634681,26.248003 3.6963771,26.021186 3.1121954,26.125146 1.6934679,26.427567 0.78474074,24.981611 0.96092258,23.327737 2.7598316,18.233815 7.7856488,16.031802 9.890558,15.899493 c 2.642728,-0.292972 7.112182,-0.387479 10.097999,2.18311 z"
       id="Unnamed"
       inkscape:connector-curvature="0"
       style="fill:#ffffff;fill-opacity:0.9748744;stroke:none;stroke-width:0.03537629;stroke-miterlimit:4;stroke-dasharray:none" />
  </g>
  <g
     inkscape:groupmode="layer"
     id="layer10"
     inkscape:label="Base">
    <path
       d="M 22.028546,22.716061 C 19.830911,11.942267 25.09782,8.7479324 29.103639,7.3870319 c 1.993635,-0.5008868 6.240544,-0.4063799 6.463092,0.13231 0.166908,0.3118729 -0.77891,1.049027 -1.112727,1.3609006 -1.038548,1.0206752 -0.74182,3.0809265 -0.760365,3.8842365 0.0371,0.878914 -0.593455,2.202012 -1.214729,1.115182 -0.157635,-0.283521 -0.203998,-0.519787 -0.333816,-0.860013 -0.899455,-2.287068 -2.142002,-2.494984 -2.902365,-2.589491 -1.548544,-0.0567 -2.281089,0.425281 -2.661272,0.784408 1.724727,-0.274072 2.624181,-0.15121 3.236181,0.245717 0.667637,0.415832 1.140545,1.228592 1.409456,1.795634 0.305999,0.689899 0.973636,1.531012 0.695453,4.271712 -0.231817,1.285295 -0.556363,2.504436 -2.698363,3.723574 2.540726,1.19079 2.271817,4.092152 1.112726,5.670417 1.233275,-0.406379 2.809637,-2.154757 0.982912,-5.396345 2.169816,0.245717 3.551453,1.965743 4.126361,5.623164 0.231819,1.578265 -0.389452,2.409925 -0.574908,2.646192 -0.268911,0.179564 -0.927273,0.151213 -1.149817,0.02834 -0.908729,-0.491438 -2.234728,-0.869468 -5.285456,-0.6332 -2.262546,-0.151211 -2.373818,0.170112 -4.293273,-2.59894 0.871636,3.080926 -1.288909,5.935038 -1.947272,6.691091 -1.010728,1.408155 -0.992182,1.408155 -1.363092,3.109279 -0.08345,0.27407 -0.287454,0.94507 -1.483637,1.21914 -0.973635,0.01891 -2.985819,-2.230364 -3.829635,-4.243364 -0.343091,-1.124631 -0.250363,-2.75015 0.120544,-3.82753 -0.0093,0.992323 1.715456,2.882462 2.735456,3.014773 0.148364,0.02834 1.446546,0.236268 2.132725,-0.472535 -2.383089,0.472535 -4.571454,-2.589491 -4.200544,-4.290616 -2.420182,0.614295 -4.478725,0.0756 -5.304,-0.774957 -1.1127272,-1.256938 -2.1883637,-2.674541 -2.1698181,-5.150625 0.074179,-1.3798 0.5099994,-1.3798 1.1127281,-2.636744 -2.8930913,1.285296 -2.2532732,5.235686 -1.1312737,6.549333 0.4821819,0.604845 0.7510918,1.304197 -0.5470898,0.784407 C 7.1458199,26.127758 6.2741842,24.719603 4.2527297,24.445535 3.835457,24.388829 2.9638207,24.530582 2.6021842,24.388829 2.0550933,24.001352 2.9730935,21.270101 5.7920023,19.190946 7.8876379,17.650484 9.3712746,17.253553 13.136,17.338611 c 2.689092,0.06616 6.834001,2.220914 8.892546,5.377445 z"
       id="Base"
       inkscape:connector-curvature="0"
       style="fill:#23bef7;fill-opacity:0.95477385;stroke:none;stroke-width:0.03537629;stroke-miterlimit:4;stroke-dasharray:none" />
  </g>
  <g
     inkscape:groupmode="layer"
     id="layer1"
     inkscape:label="circle"
     style="display:none">
    <circle
       style="fill:none;fill-opacity:0.95477385;fill-rule:evenodd;stroke:#000000;stroke-width:0.03778998;stroke-miterlimit:4;stroke-dasharray:none;stroke-opacity:1"
       id="path842"
       cx="21.940323"
       cy="22.059679"
       r="22.013702" />
  </g>
</svg>
